HIERARCHY
ROOT Hips
{
	OFFSET 0.00 0.00 0.00
	CHANNELS 6 Xposition Yposition Zposition Xrotation Yrotation Zrotation
	JOINT Spine
	{
		OFFSET 0.00000 1.72418 2.58627
		CHANNELS 3 Xrotation Yrotation Zrotation
		JOINT Spine1
		{
			OFFSET 0.00000 0.59880 3.39597
			CHANNELS 3 Xrotation Yrotation Zrotation
			JOINT Spine2
			{
				OFFSET 0.00000 0.30055 3.43524
				CHANNELS 3 Xrotation Yrotation Zrotation
				JOINT Spine3
				{
					OFFSET 0.00000 0.00000 3.44836
					CHANNELS 3 Xrotation Yrotation Zrotation
					JOINT Neck
					{
						OFFSET 0.00000 -1.29313 9.05195
						CHANNELS 3 Xrotation Yrotation Zrotation
						JOINT Head
						{
							OFFSET 0.00000 -0.82335 4.66946
							CHANNELS 3 Xrotation Yrotation Zrotation
							End Site
							{
								OFFSET 0.00000 0.00001 5.58203
							}
						}
					}
					JOINT RightShoulder
					{
						OFFSET -1.18828 -1.98046 6.41673
						CHANNELS 3 Xrotation Yrotation Zrotation
						JOINT RightArm
						{
							OFFSET -5.90180 0.00000 0.00000
							CHANNELS 3 Xrotation Yrotation Zrotation
							JOINT RightForeArm
							{
								OFFSET -11.45951 0.00000 0.00000
								CHANNELS 3 Xrotation Yrotation Zrotation
								JOINT RightHand
								{
									OFFSET -10.63451 0.00000 0.00000
									CHANNELS 3 Xrotation Yrotation Zrotation
									JOINT RightHandEnd
									{
										OFFSET -2.86944 0.00000 0.00000
										CHANNELS 3 Xrotation Yrotation Zrotation
										End Site
										{
											OFFSET -2.86944 0.00000 0.00000
										}
									}
									JOINT RightHandThumb1
									{
										OFFSET -1.14778 -1.91296 -0.76518
										CHANNELS 3 Yrotation Xrotation Zrotation
										End Site
										{
											OFFSET -2.77167 -0.74267 0.00000
										}
									}
								}
							}
						}
					}
					JOINT LeftShoulder
					{
						OFFSET 1.18828 -1.98046 6.41673
						CHANNELS 3 Xrotation Yrotation Zrotation
						JOINT LeftArm
						{
							OFFSET 5.90180 0.00000 0.00000
							CHANNELS 3 Xrotation Yrotation Zrotation
							JOINT LeftForeArm
							{
								OFFSET 11.45951 0.00000 0.00000
								CHANNELS 3 Xrotation Yrotation Zrotation
								JOINT LeftHand
								{
									OFFSET 10.63451 0.00000 0.00000
									CHANNELS 3 Xrotation Yrotation Zrotation
									JOINT LeftHandEnd
									{
										OFFSET 2.86944 0.00000 0.00000
										CHANNELS 3 Xrotation Yrotation Zrotation
										End Site
										{
											OFFSET 2.86944 0.00000 0.00000
										}
									}
									JOINT LeftHandThumb1
									{
										OFFSET 1.14778 -1.91296 -0.76518
										CHANNELS 3 Yrotation Xrotation Zrotation
										End Site
										{
											OFFSET 2.77167 -0.74267 0.00000
										}
									}
								}
							}
						}
					}
				}
			}
		}
	}
	JOINT RightUpLeg
	{
		OFFSET -3.52524 0.00000 -1.02984
		CHANNELS 3 Xrotation Yrotation Zrotation
		JOINT RightLeg
		{
			OFFSET 0.00001 0.00000 -17.80965
			CHANNELS 3 Xrotation Yrotation Zrotation
			JOINT RightFoot
			{
				OFFSET 0.00001 0.00000 -17.00908
				CHANNELS 3 Xrotation Yrotation Zrotation
				JOINT RightToeBase
				{
					OFFSET 0.00000 -5.55853 -2.02314
					CHANNELS 3 Xrotation Yrotation Zrotation
					End Site
					{
						OFFSET 0.00000 -2.85188 -0.00000
					}
				}
			}
		}
	}
	JOINT LeftUpLeg
	{
		OFFSET 3.52524 0.00000 -1.02984
		CHANNELS 3 Xrotation Yrotation Zrotation
		JOINT LeftLeg
		{
			OFFSET 0.00001 0.00000 -17.80965
			CHANNELS 3 Xrotation Yrotation Zrotation
			JOINT LeftFoot
			{
				OFFSET 0.00001 0.00000 -17.00908
				CHANNELS 3 Xrotation Yrotation Zrotation
				JOINT LeftToeBase
				{
					OFFSET 0.00000 -5.55853 -2.02314
					CHANNELS 3 Xrotation Yrotation Zrotation
					End Site
					{
						OFFSET 0.00000 -2.85188 -0.00000
					}
				}
			}
		}
	}
}
MOTION
Frames: 18
Frame Time: 0.008342
 7.2818 -26.4276 34.1410 5.3200 5.8520 -169.6419 8.0334 3.2507 -2.4988 2.8827 -0.1575 -0.1775 0.3537 -0.5539 -2.1939 -0.4828 -0.1376 0.1698 -2.1217 2.6897 9.5015 -13.6610 5.4952 31.1088 -2.9056 21.9440 -2.7178 -73.7501 7.1364 5.5541 -0.0000 0.0001 60.3091 -55.7179 16.9488 11.2253 0.0000 0.0000 -0.0000 -0.0000 0.0000 0.0000 -0.8838 -19.8346 -4.2310 -89.1038 -12.1878 -8.7707 -0.0000 -0.0001 -60.8569 -41.7092 -15.2412 -11.8963 0.0000 0.0000 -0.0000 0.0000 0.0000 0.0000 -36.6976 8.4474 -10.7564 47.9066 0.0000 0.0000 -13.3604 0.8701 -12.9973 -9.3257 0.0000 -0.0000 -0.9502 10.5983 0.7169 43.4127 0.0000 0.0000 -32.9063 -7.4481 4.0267 -1.8960 0.0000 -0.0000
 7.2909 -26.1738 34.1706 5.2228 5.9263 -169.4605 8.1140 3.3860 -2.6004 2.9184 -0.1493 -0.1817 0.3018 -0.5691 -2.2437 -0.4871 -0.1538 0.1736 -2.0867 2.7065 9.5717 -13.6256 5.5256 31.3862 -2.7765 22.1216 -2.8496 -73.9481 7.0764 5.5578 -0.0000 0.0001 60.3622 -55.7330 17.1989 11.3926 -0.0000 -0.0000 0.0000 0.0000 0.0000 -0.0000 -0.7993 -20.0974 -3.9999 -89.6103 -12.1483 -8.7430 -0.0000 -0.0001 -60.9696 -41.7934 -15.4185 -11.9587 0.0000 -0.0000 0.0000 -0.0000 -0.0000 0.0000 -36.7754 8.4406 -11.5729 46.1414 0.0000 0.0000 -12.1879 0.3151 -12.4349 -9.4132 0.0000 -0.0000 -0.3527 10.5443 0.5463 42.9181 0.0000 0.0000 -32.7433 -7.3364 3.8663 -2.2492 0.0000 -0.0000
 7.2992 -25.9132 34.2148 5.1068 6.0067 -169.2671 8.1659 3.5267 -2.7008 2.9461 -0.1439 -0.1852 0.2428 -0.5761 -2.2851 -0.4858 -0.1691 0.1726 -2.0311 2.7214 9.6388 -13.5591 5.5486 31.6224 -2.6166 22.2873 -2.9883 -74.0165 6.9845 5.4468 -0.0000 0.0001 60.2201 -56.0394 17.5414 11.5279 0.0000 0.0000 -0.0000 0.0000 0.0000 -0.0000 -0.6364 -20.3250 -3.7459 -90.0189 -12.0664 -8.6281 -0.0000 -0.0001 -60.8784 -42.0509 -15.6165 -11.9803 0.0000 0.0000 -0.0000 -0.0000 -0.0000 0.0000 -36.7704 8.4521 -12.4699 44.3171 0.0000 0.0000 -10.8758 -0.2929 -11.7119 -9.5164 0.0000 -0.0000 0.2589 10.4847 0.3786 42.3612 0.0000 0.0000 -32.4484 -7.1759 3.6919 -2.6938 0.0000 -0.0000
 7.3067 -25.6455 34.2734 4.9704 6.0922 -169.0578 8.1863 3.6684 -2.8000 2.9646 -0.1384 -0.1872 0.1786 -0.5771 -2.3208 -0.4817 -0.1807 0.1674 -1.9503 2.7342 9.7025 -13.4611 5.5662 31.8184 -2.4305 22.4320 -3.1316 -73.9563 6.8646 5.2251 -0.0000 0.0001 59.9124 -56.5655 17.9393 11.6119 0.0000 -0.0000 -0.0000 -0.0000 -0.0000 0.0000 -0.3984 -20.5068 -3.4785 -90.3237 -11.9517 -8.4300 -0.0000 -0.0000 -60.6046 -42.4561 -15.8211 -11.9596 0.0000 0.0000 0.0000 0.0000 -0.0000 0.0000 -36.6849 8.4822 -13.4556 42.4402 0.0000 0.0000 -9.4207 -0.9343 -10.8194 -9.6338 0.0000 -0.0000 0.8797 10.4228 0.2021 41.7485 0.0000 0.0000 -32.0155 -6.9692 3.5138 -3.2279 0.0000 -0.0000
 7.3134 -25.3705 34.3460 4.8113 6.1807 -168.8282 8.1740 3.8154 -2.8926 2.9709 -0.1333 -0.1899 0.1105 -0.5852 -2.3573 -0.4759 -0.1854 0.1611 -1.8427 2.7494 9.7630 -13.3303 5.5806 31.9741 -2.2240 22.5465 -3.2756 -73.7703 6.7250 4.9038 -0.0000 0.0001 59.4696 -57.2267 18.3519 11.6265 0.0000 -0.0000 -0.0000 0.0000 -0.0000 -0.0000 -0.0965 -20.6281 -3.2061 -90.5167 -11.8055 -8.1537 -0.0000 -0.0000 -60.1765 -42.9767 -16.0149 -11.8989 0.0000 -0.0000 -0.0000 0.0000 -0.0000 -0.0000 -36.5237 8.5291 -14.5377 40.5176 0.0000 0.0000 -7.8211 -1.5894 -9.7633 -9.7611 0.0000 -0.0000 1.5035 10.3595 0.0067 41.0869 0.0000 0.0000 -31.4404 -6.7194 3.3388 -3.8466 0.0000 -0.0000
 7.3194 -25.0880 34.4323 4.6271 6.2638 -168.5742 8.1241 3.9556 -2.9785 2.9657 -0.1311 -0.1928 0.0371 -0.5895 -2.3911 -0.4660 -0.1878 0.1502 -1.7099 2.7706 9.8207 -13.1684 5.5871 32.0887 -2.0037 22.6179 -3.4198 -73.4633 6.5720 4.4966 -0.0000 0.0001 58.9238 -57.9309 18.7416 11.5600 -0.0000 0.0000 0.0000 0.0000 -0.0000 0.0000 0.2547 -20.6810 -2.9421 -90.5850 -11.6380 -7.7999 -0.0000 -0.0000 -59.6269 -43.5815 -16.1798 -11.8007 0.0000 0.0000 0.0000 -0.0000 -0.0000 0.0000 -36.2921 8.5861 -15.7313 38.5545 0.0000 0.0000 -6.0778 -2.2411 -8.5602 -9.8886 0.0000 -0.0000 2.1219 10.2882 -0.2156 40.3863 0.0000 0.0000 -30.7232 -6.4305 3.1688 -4.5449 0.0000 -0.0000
 7.3252 -24.7981 34.5314 4.4194 6.3367 -168.2935 8.0369 4.0846 -3.0554 2.9484 -0.1297 -0.1955 -0.0374 -0.5960 -2.4260 -0.4550 -0.1844 0.1364 -1.5529 2.7980 9.8741 -12.9755 5.5829 32.1641 -1.7734 22.6346 -3.5628 -73.0450 6.4093 4.0147 -0.0000 0.0001 58.3087 -58.5860 19.0751 11.4003 0.0000 -0.0000 0.0000 0.0000 0.0000 0.0000 0.6481 -20.6574 -2.6932 -90.5241 -11.4516 -7.3758 -0.0000 -0.0000 -58.9877 -44.2307 -16.3071 -11.6698 0.0000 -0.0000 0.0000 0.0000 -0.0000 -0.0000 -35.9938 8.6466 -17.0467 36.5579 0.0000 0.0000 -4.1965 -2.8748 -7.2424 -10.0067 0.0000 -0.0000 2.7302 10.2026 -0.4667 39.6557 0.0000 0.0000 -29.8657 -6.1066 3.0002 -5.3183 0.0000 -0.0000
 7.3310 -24.5009 34.6427 4.1885 6.3918 -167.9841 7.9118 4.1996 -3.1219 2.9196 -0.1357 -0.2005 -0.1124 -0.6010 -2.4603 -0.4421 -0.1783 0.1200 -1.3738 2.8324 9.9224 -12.7556 5.5674 32.2015 -1.5352 22.5864 -3.7061 -72.5260 6.2398 3.4715 -0.0000 0.0001 57.6529 -59.1244 19.3244 11.1590 0.0000 -0.0000 0.0000 -0.0000 -0.0000 0.0000 1.0780 -20.5523 -2.4640 -90.3283 -11.2487 -6.8829 -0.0000 -0.0000 -58.2916 -44.8982 -16.3903 -11.5225 0.0000 0.0000 0.0000 0.0000 -0.0000 -0.0000 -35.6344 8.7015 -18.4951 34.5355 0.0000 0.0000 -2.1880 -3.4803 -5.8535 -10.1057 0.0000 -0.0000 3.3219 10.0937 -0.7470 38.9050 0.0000 0.0000 -28.8731 -5.7536 2.8280 -6.1627 0.0000 -0.0000
 7.3371 -24.1964 34.7647 3.9388 6.4255 -167.6458 7.7514 4.2946 -3.1766 2.8797 -0.1394 -0.2040 -0.1856 -0.6146 -2.4996 -0.4279 -0.1662 0.1020 -1.1759 2.8699 9.9623 -12.5104 5.5422 32.2063 -1.2889 22.4665 -3.8510 -71.9200 6.0635 2.8738 -0.0000 0.0001 56.9866 -59.4940 19.4852 10.8397 0.0000 -0.0000 0.0000 0.0000 -0.0000 0.0000 1.5361 -20.3642 -2.2586 -89.9937 -11.0289 -6.3261 -0.0000 -0.0000 -57.5670 -45.5552 -16.4256 -11.3711 -0.0000 0.0000 -0.0000 -0.0000 -0.0000 0.0000 -35.2175 8.7438 -20.0845 32.4994 0.0000 0.0000 -0.0707 -4.0506 -4.4436 -10.1772 0.0000 -0.0000 3.8954 9.9553 -1.0525 38.1423 0.0000 0.0000 -27.7527 -5.3792 2.6447 -7.0749 0.0000 -0.0000
 7.3438 -23.8851 34.8961 3.6698 6.4329 -167.2789 7.5558 4.3697 -3.2202 2.8295 -0.1473 -0.2087 -0.2559 -0.6309 -2.5407 -0.4114 -0.1527 0.0821 -0.9633 2.9120 9.9943 -12.2456 5.5033 32.1799 -1.0356 22.2720 -4.0003 -71.2389 5.8772 2.2301 -0.0000 0.0001 56.3313 -59.6672 19.5601 10.4626 0.0000 -0.0000 -0.0000 -0.0000 0.0000 0.0000 2.0200 -20.0950 -2.0769 -89.5174 -10.7920 -5.7041 -0.0000 -0.0000 -56.8420 -46.1713 -16.4268 -11.2166 0.0000 -0.0000 0.0000 0.0000 -0.0000 0.0000 -34.7526 8.7659 -21.8202 30.4625 0.0000 0.0000 2.1319 -4.5806 -3.0657 -10.2160 0.0000 -0.0000 4.4428 9.7808 -1.3766 37.3777 0.0000 0.0000 -26.5149 -4.9928 2.4429 -8.0529 0.0000 -0.0000
 7.3511 -23.5670 35.0351 3.3924 6.4145 -166.8869 7.3353 4.4226 -3.2534 2.7713 -0.1540 -0.2123 -0.3225 -0.6552 -2.5865 -0.3938 -0.1361 0.0627 -0.7384 2.9562 10.0158 -11.9658 5.4502 32.1272 -0.7725 22.0055 -4.1571 -70.4963 5.6754 1.5412 -0.0000 0.0001 55.7031 -59.6464 19.5634 10.0514 -0.0000 -0.0000 -0.0000 -0.0000 -0.0000 0.0000 2.5264 -19.7501 -1.9199 -88.8990 -10.5362 -5.0185 -0.0000 -0.0000 -56.1354 -46.7233 -16.4050 -11.0624 0.0000 0.0000 0.0000 -0.0000 -0.0000 0.0000 -34.2384 8.7626 -23.7032 28.4421 0.0000 0.0000 4.3871 -5.0643 -1.7676 -10.2185 0.0000 -0.0000 4.9704 9.5669 -1.7093 36.6167 0.0000 0.0000 -25.1710 -4.6053 2.2155 -9.0956 0.0000 -0.0000
 7.3592 -23.2420 35.1801 3.1233 6.3687 -166.4725 7.1081 4.4515 -3.2774 2.7044 -0.1620 -0.2167 -0.3845 -0.6846 -2.6354 -0.3742 -0.1205 0.0427 -0.5056 3.0018 10.0283 -11.6750 5.3827 32.0511 -0.4973 21.6728 -4.3249 -69.7071 5.4494 0.8094 -0.0000 0.0001 55.1107 -59.4519 19.5175 9.6259 0.0000 -0.0000 0.0000 -0.0000 -0.0000 0.0000 3.0595 -19.3370 -1.7819 -88.1463 -10.2569 -4.2697 -0.0000 -0.0000 -55.4597 -47.1947 -16.3688 -10.9108 0.0000 0.0000 0.0000 -0.0000 0.0000 0.0000 -33.6656 8.7254 -25.7319 26.4545 0.0000 0.0000 6.6563 -5.4917 -0.5896 -10.1827 0.0000 -0.0000 5.4910 9.3064 -2.0401 35.8643 0.0000 0.0000 -23.7352 -4.2277 1.9557 -10.2011 0.0000 -0.0000
 7.3677 -22.9125 35.3275 2.8135 6.2978 -166.0347 6.8235 4.4740 -3.2935 2.6335 -0.1796 -0.2245 -0.4381 -0.7131 -2.6861 -0.3529 -0.1049 0.0247 -0.2678 3.0454 10.0305 -11.3809 5.3011 31.9561 -0.2114 21.2774 -4.5055 -68.8828 5.1917 0.0376 -0.0000 0.0001 54.5562 -59.1228 19.4444 9.2061 0.0000 0.0000 -0.0000 0.0000 -0.0000 -0.0000 3.6143 -18.8612 -1.6630 -87.2639 -9.9500 -3.4670 -0.0000 -0.0000 -54.8203 -47.5716 -16.3314 -10.7560 -0.0000 -0.0000 0.0000 -0.0000 0.0000 -0.0000 -33.1056 8.6654 -27.8803 24.5328 0.0000 0.0000 8.8953 -5.8458 0.4376 -10.1073 0.0000 -0.0000 5.9409 9.0163 -2.3594 35.1417 0.0000 0.0000 -22.2259 -3.8735 1.6646 -11.3671 0.0000 -0.0000
 7.3766 -22.5762 35.4769 2.5439 6.2081 -165.5847 6.5672 4.4689 -3.3049 2.5561 -0.1853 -0.2268 -0.4878 -0.7533 -2.7448 -0.3295 -0.0904 0.0056 -0.0253 3.0869 10.0253 -11.0845 5.2071 31.8458 0.0883 20.8383 -4.6964 -68.0360 4.8912 -0.7810 -0.0000 0.0001 54.0329 -58.7127 19.3615 8.8101 -0.0000 0.0000 0.0000 0.0000 -0.0000 -0.0000 4.1925 -18.3391 -1.5624 -86.2597 -9.6146 -2.6048 -0.0000 -0.0000 -54.2159 -47.8455 -16.2892 -10.5939 -0.0000 0.0000 -0.0000 0.0000 -0.0000 -0.0000 -32.4754 8.5673 -30.1387 22.6890 0.0000 0.0000 11.0489 -6.1012 1.3052 -9.9922 0.0000 -0.0000 6.4121 8.6811 -2.6542 34.4333 0.0000 0.0000 -20.6557 -3.5508 1.3361 -12.5893 0.0000 -0.0000
 7.3858 -22.2360 35.6244 2.2500 6.0990 -165.1195 6.2728 4.4569 -3.3105 2.4760 -0.1931 -0.2303 -0.5291 -0.7933 -2.8078 -0.3035 -0.0783 -0.0130 0.2194 3.1233 10.0127 -10.7927 5.1023 31.7235 0.4006 20.3583 -4.8992 -67.1793 4.5420 -1.6392 -0.0000 0.0001 53.5325 -58.2741 19.2834 8.4424 0.0000 -0.0000 0.0000 0.0000 -0.0000 0.0000 4.7917 -17.7744 -1.4786 -85.1474 -9.2446 -1.6978 -0.0000 -0.0000 -53.6417 -48.0063 -16.2491 -10.4129 -0.0000 0.0000 -0.0000 0.0000 -0.0000 -0.0000 -31.8634 8.4444 -32.4529 20.9571 0.0000 0.0000 13.0656 -6.2257 2.0053 -9.8368 0.0000 -0.0000 6.8232 8.3206 -2.9183 33.7651 0.0000 0.0000 -19.0478 -3.2701 0.9765 -13.8614 0.0000 -0.0000
 7.3945 -21.8916 35.7682 1.9613 5.9851 -164.6476 5.9777 4.4477 -3.3109 2.3907 -0.2064 -0.2356 -0.5636 -0.8335 -2.8745 -0.2759 -0.0683 -0.0309 0.4690 3.1549 9.9943 -10.5083 4.9895 31.5917 0.7282 19.8504 -5.1106 -66.3245 4.1381 -2.5362 -0.0000 0.0001 53.0404 -57.8619 19.2127 8.1113 -0.0000 -0.0000 0.0000 -0.0000 0.0000 0.0000 5.4075 -17.1775 -1.4151 -83.9401 -8.8367 -0.7508 -0.0000 -0.0000 -53.0903 -48.0538 -16.2052 -10.2035 0.0000 0.0000 0.0000 0.0000 -0.0000 -0.0000 -31.2483 8.3047 -34.7754 19.3632 0.0000 0.0000 14.8865 -6.1788 2.5586 -9.6425 0.0000 -0.0000 7.2108 7.9449 -3.1464 33.1301 0.0000 0.0000 -17.4149 -3.0361 0.5903 -15.1759 0.0000 -0.0000
 7.4027 -21.5439 35.9063 1.6750 5.8677 -164.1721 5.6790 4.4384 -3.3055 2.3008 -0.2186 -0.2399 -0.5907 -0.8752 -2.9469 -0.2448 -0.0592 -0.0497 0.7216 3.1793 9.9708 -10.2315 4.8717 31.4537 1.0643 19.3206 -5.3247 -65.4768 3.6789 -3.4656 -0.0000 0.0001 52.5422 -57.5285 19.1484 7.8201 0.0000 0.0000 -0.0000 -0.0000 0.0000 -0.0000 6.0296 -16.5562 -1.3751 -82.6490 -8.3861 0.2257 -0.0000 -0.0000 -52.5503 -48.0036 -16.1464 -9.9715 -0.0000 -0.0000 -0.0000 0.0000 -0.0000 -0.0000 -30.6435 8.1513 -37.0391 17.9273 0.0000 0.0000 16.4623 -5.9256 2.9845 -9.4120 0.0000 -0.0000 7.5694 7.5590 -3.3355 32.5356 0.0000 0.0000 -15.7767 -2.8510 0.1828 -16.5190 0.0000 -0.0000
 7.4102 -21.1941 36.0361 1.3656 5.7434 -163.6937 5.3495 4.4329 -3.2935 2.2085 -0.2342 -0.2478 -0.6092 -0.9118 -3.0238 -0.2117 -0.0514 -0.0678 0.9809 3.1936 9.9444 -9.9663 4.7525 31.3109 1.4124 18.7687 -5.5389 -64.6521 3.1629 -4.4174 -0.0000 0.0001 52.0276 -57.3039 19.0811 7.5646 -0.0000 -0.0000 0.0000 0.0000 -0.0000 0.0000 6.6547 -15.9126 -1.3613 -81.2921 -7.8921 1.2180 -0.0000 -0.0000 -52.0165 -47.8675 -16.0692 -9.7118 -0.0000 0.0000 -0.0000 -0.0000 0.0000 -0.0000 -30.0869 7.9913 -39.1671 16.6687 0.0000 0.0000 17.7527 -5.4381 3.3076 -9.1516 0.0000 -0.0000 7.8660 7.1708 -3.4870 31.9958 0.0000 0.0000 -14.1543 -2.7144 -0.2391 -17.8751 0.0000 -0.0000
